<?xml version="1.0" encoding="utf-8"?>
<!-- Generator: Adobe Illustrator 19.1.0, SVG Export Plug-In . SVG Version: 6.00 Build 0)  -->
<!DOCTYPE svg PUBLIC "-//W3C//DTD SVG 1.1//EN" "http://www.w3.org/Graphics/SVG/1.1/DTD/svg11.dtd">
<svg version="1.1" id="Layer_1" xmlns="http://www.w3.org/2000/svg" xmlns:xlink="http://www.w3.org/1999/xlink" x="0px" y="0px"
	 viewBox="0 0 168 54.4" style="enable-background:new 0 0 168 54.4;" xml:space="preserve">
<style type="text/css">
	.st0{fill:#639794;}
</style>
<g>
	<path class="st0" d="M43.6,25.6c0.4-0.7,0.7-1.1,1.1-1.3c0.4-0.2,0.6-0.2,0.8-0.1c0.2,0.1,0.3,0.4,0.3,0.8c0,0.4-0.1,0.9-0.3,1.4
		c-0.8,1.5-1.6,3.1-2.5,4.8c-0.9,1.8-1.9,3.4-3,4.9c-1,1.5-2,2.7-3,3.6c-1,0.9-1.9,1.3-2.8,1.2c-1.2-0.3-2-0.9-2.5-2
		c-0.4-1.1-0.6-2.4-0.5-3.9c0.1-1.5,0.4-3.1,0.8-4.9c0.5-1.7,1-3.4,1.5-4.9c-1.2,0.8-2.7,2.1-4.4,3.9c-1.7,1.8-3.3,4.2-4.8,7.4
		c-0.6,1.5-1.2,2.9-1.8,4.3c-0.6,1.4-1.1,2.7-1.6,3.9c-0.5,1.2-0.9,2.2-1.2,3c-0.4,0.8-0.6,1.4-0.7,1.8c-0.2,0.3-0.5,0.5-0.8,0.5
		c-0.3,0-0.7-0.1-1-0.3c-0.3-0.2-0.6-0.4-0.9-0.7c-0.3-0.3-0.4-0.6-0.4-0.9c0.3-1.1,0.7-2.6,1.4-4.5c0.6-1.9,1.3-3.9,2-6
		c0.8-2.1,1.5-4.3,2.3-6.5c0.8-2.2,1.5-4.2,2.2-6c0.7-1.8,1.2-3.3,1.7-4.5c0.5-1.2,0.7-1.9,0.8-2c0.6,0.1,1.3,0.4,2.1,0.9
		c0.8,0.5,1.4,1.3,1.7,2.4c0,0.1-0.1,0.4-0.3,0.7c-0.1,0.4-0.3,0.8-0.5,1.4c1.5-1.8,3-3.2,4.4-4.2c1.4-1,2.3-1.5,2.7-1.5
		c0.6,0.1,1.3,0.4,2.1,0.9c0.8,0.5,1.4,1.3,1.7,2.4c-0.1,0.5-0.4,1.2-0.7,2.1c-0.4,0.9-0.8,2-1.2,3.2c-0.5,1.2-0.9,2.4-1.4,3.6
		c-0.5,1.2-0.9,2.4-1.2,3.4c-0.3,1-0.5,1.9-0.6,2.6c-0.1,0.7,0,1.1,0.3,1.2c0.3,0.1,0.7-0.1,1.2-0.6c0.5-0.5,1-1.1,1.5-1.9
		c0.5-0.8,1.1-1.7,1.7-2.6c0.6-1,1.1-1.9,1.6-2.9c0.5-0.9,1-1.8,1.4-2.6C43.1,26.5,43.4,26,43.6,25.6z"/>
	<path class="st0" d="M53.4,25.6c0.4-0.7,0.7-1.1,1.1-1.4c0.4-0.2,0.7-0.3,0.9-0.2c0.3,0.1,0.4,0.4,0.4,0.8c0,0.4-0.1,0.9-0.4,1.5
		c-0.5,0.9-1.1,2.1-2,3.8c-0.9,1.7-1.8,3.3-2.9,4.9c-1,1.6-2.1,3-3.2,4.2c-1.1,1.2-2.1,1.7-2.9,1.6c-1.3-0.2-2.1-0.9-2.6-2
		c-0.5-1.2-0.7-2.7-0.7-4.5c0.1-1.9,0.4-4,1-6.4c0.6-2.4,1.4-5,2.3-7.8c0.9-2.8,2-5.6,3.3-8.6c1.2-3,2.5-5.9,3.9-8.8
		c0.3,0,0.6,0.2,1.1,0.4C53.2,3.4,53.6,3.7,54,4c0.4,0.4,0.8,0.8,1.1,1.3c0.4,0.5,0.6,1,0.7,1.5c-0.8,1.9-1.7,4-2.6,6.3
		c-0.9,2.3-1.8,4.5-2.7,6.8c-0.9,2.3-1.8,4.5-2.5,6.6c-0.8,2.1-1.5,4-2,5.6c-0.5,1.6-0.9,3-1,4c-0.2,1-0.1,1.6,0.2,1.6
		c0.3,0.1,0.7-0.1,1.2-0.6c0.5-0.5,1-1.1,1.6-1.9c0.6-0.8,1.1-1.6,1.7-2.6c0.6-1,1.1-1.9,1.6-2.8c0.5-0.9,1-1.7,1.4-2.5
		C52.9,26.5,53.2,26,53.4,25.6z"/>
	<path class="st0" d="M73.4,25.5c0.4-0.7,0.7-1.1,1.1-1.3c0.3-0.2,0.6-0.2,0.8-0.1c0.2,0.1,0.4,0.4,0.4,0.8c0,0.4-0.1,0.9-0.3,1.4
		c-0.8,1.5-1.6,3.1-2.5,4.8c-0.9,1.8-1.9,3.4-2.9,4.9c-1,1.5-2,2.7-3,3.6s-1.9,1.3-2.8,1.2c-1-0.2-1.7-0.6-2.1-1.3
		c-0.5-0.6-0.8-1.4-0.9-2.4c-1.1,1.8-2.4,3-3.8,3.5c-1.4,0.5-2.7,0.4-3.9-0.4c-1.1-0.8-1.9-2.2-2.4-4.2s-0.2-4.8,0.8-8.1
		c0.9-3.1,2-5.5,3.4-6.9c1.4-1.5,2.7-2.3,4.1-2.5c1.3-0.2,2.5,0.1,3.5,0.9c1,0.8,1.5,2,1.7,3.4c0.3-0.7,0.6-1.2,0.8-1.7
		c0.2-0.5,0.4-0.8,0.5-1c0.6,0.1,1.3,0.4,2.1,0.9c0.8,0.5,1.4,1.4,1.7,2.5c-0.1,0.5-0.4,1.1-0.7,2c-0.3,0.9-0.7,1.8-1.2,2.8
		c-0.4,1-0.9,2.1-1.3,3.2c-0.4,1.1-0.8,2.1-1.1,3c-0.3,0.9-0.5,1.7-0.5,2.3s0.1,0.9,0.4,1c0.3,0.1,0.7-0.1,1.2-0.6
		c0.5-0.5,1-1.1,1.5-1.9c0.5-0.8,1.1-1.7,1.7-2.6c0.6-1,1.1-1.9,1.6-2.9c0.5-0.9,1-1.8,1.4-2.6C72.8,26.4,73.2,25.8,73.4,25.5z
		 M56.1,29c-0.8,2.5-1.1,4.5-0.9,5.8c0.2,1.4,0.6,2.1,1.3,2.4c0.7,0.2,1.5-0.1,2.4-1.1c0.9-0.9,1.8-2.4,2.5-4.5
		c0.1-0.5,0.2-0.9,0.3-1.4s0.3-0.9,0.4-1.4c0.4-1.5,0.4-2.8,0-3.7c-0.4-0.9-0.9-1.5-1.5-1.6c-0.7-0.1-1.4,0.3-2.3,1.1
		C57.5,25.5,56.8,27,56.1,29z"/>
	<path class="st0" d="M88.8,25.6c0.3-0.5,0.6-0.9,1-1.2c0.4-0.3,0.7-0.3,0.9-0.3c0.3,0.1,0.4,0.3,0.5,0.6c0.1,0.4,0,0.9-0.3,1.5
		c-1.3,3.3-2.9,6-4.6,8.1c-1.7,2.2-3.4,3.8-5.2,4.9c-1.7,1.1-3.3,1.7-4.9,1.7c-1.5,0-2.8-0.4-3.8-1.4s-1.6-2.4-1.9-4.3
		c-0.3-1.9,0.1-4.3,0.9-7.2c0.8-2.5,1.7-4.4,2.8-5.9c1.1-1.4,2.2-2.5,3.3-3c1.1-0.6,2.2-0.8,3.3-0.6c1,0.2,1.9,0.7,2.5,1.5
		c0.6,0.8,1,1.9,1.2,3.3c0.1,1.4-0.1,3-0.8,4.8c-0.3,0.6-0.9,1-1.7,1.3c-0.8,0.3-1.5,0.3-2,0.1c0.6-1.8,0.9-3.2,0.8-4.2
		c-0.1-1-0.4-1.6-0.8-1.7c-0.5-0.1-1.1,0.3-1.9,1.1s-1.5,2.3-2.2,4.3c-1.1,3.1-1.4,5.3-0.8,6.7c0.6,1.4,1.6,1.9,3,1.6
		c1.4-0.3,3.1-1.4,5.1-3.4C85.3,32,87.1,29.2,88.8,25.6z"/>
	<path class="st0" d="M104.9,25.6c0.3-0.6,0.6-1,1-1.3c0.4-0.3,0.7-0.4,0.9-0.3c0.3,0,0.4,0.2,0.5,0.6c0.1,0.4,0,0.9-0.3,1.5
		c-1.3,3.3-2.9,6-4.7,8.1s-3.5,3.8-5.3,4.9c-1.8,1.1-3.4,1.7-5,1.7c-1.6,0-2.9-0.4-4-1.4c-1-1-1.7-2.4-2-4.4c-0.3-1.9,0-4.4,0.8-7.3
		c0.5-1.8,1.1-3.3,1.9-4.5c0.8-1.2,1.5-2.2,2.4-3c0.8-0.7,1.7-1.3,2.5-1.6c0.9-0.3,1.7-0.4,2.4-0.4c1.3,0.1,2.2,0.6,2.9,1.4
		s1.1,1.9,1.3,3.2s0.1,2.6-0.2,4.1c-0.3,1.5-0.9,2.9-1.7,4.1c-0.8,1.3-1.8,2.4-3.1,3.3c-1.2,0.9-2.7,1.4-4.4,1.5
		c0.5,0.9,1.2,1.3,2.3,1.3c1,0,2.2-0.5,3.5-1.4c1.3-0.9,2.7-2.2,4.1-4C102.4,30.4,103.7,28.2,104.9,25.6z M96.3,23.4
		c-0.5-0.2-1.1,0-1.8,0.7c-0.6,0.6-1.3,1.5-1.8,2.5c-0.6,1-1,2.2-1.4,3.4c-0.4,1.2-0.6,2.2-0.7,3.1c0.8,0,1.5-0.2,2.1-0.6
		s1.3-1,1.8-1.6c0.5-0.6,1-1.4,1.4-2.2c0.4-0.8,0.7-1.6,0.8-2.3c0.2-0.7,0.2-1.4,0.2-1.9C96.9,23.9,96.7,23.6,96.3,23.4z"/>
	<path class="st0" d="M133.8,25.5c0.4-0.7,0.7-1.1,1.1-1.3s0.6-0.2,0.8-0.1c0.2,0.1,0.3,0.4,0.3,0.8c0,0.4-0.1,0.9-0.3,1.4
		c-0.7,1.5-1.5,3.1-2.5,4.9c-0.9,1.8-1.9,3.4-2.9,4.9c-1,1.5-2,2.7-3,3.6c-1,0.9-1.9,1.3-2.8,1.1c-1.2-0.3-2.1-0.9-2.5-1.8
		c-0.5-1-0.7-2.1-0.7-3.5c0-1.3,0.2-2.8,0.6-4.3c0.4-1.5,0.8-3,1.3-4.4c-0.7,0.4-1.4,1-2.3,1.7c-0.9,0.7-1.8,1.6-2.6,2.7
		c-0.9,1-1.7,2.3-2.5,3.7c-0.8,1.4-1.4,3-1.9,4.8c-0.2,0.4-0.5,0.7-0.9,0.8s-0.8,0.3-1.2,0.4c-0.4,0.1-0.8,0.1-1.1,0.1
		c-0.3,0-0.5-0.1-0.6-0.2c0-1.3,0.2-2.6,0.4-4c0.3-1.4,0.6-2.7,0.9-4.1c0.4-1.3,0.8-2.7,1.2-4c0.4-1.3,0.9-2.5,1.3-3.6
		c-0.7,0.5-1.5,1-2.4,1.7c-0.9,0.7-1.7,1.5-2.6,2.5c-0.9,1-1.7,2.1-2.5,3.4c-0.8,1.3-1.5,2.7-2,4.3c-0.2,0.5-0.3,1.1-0.4,1.6
		s-0.2,1-0.3,1.4c-0.2,0.3-0.4,0.6-0.7,0.7c-0.3,0.1-0.5,0.2-0.8,0.1s-0.5-0.1-0.7-0.2c-0.2-0.1-0.4-0.2-0.4-0.3
		c-0.3-1.1-0.3-2.5-0.1-4.1c0.2-1.6,0.5-3.4,1-5.2c0.5-1.9,1.1-3.9,1.8-6c0.7-2.1,1.5-4.2,2.3-6.4c0.3-0.2,0.6-0.2,1-0.1
		c0.4,0.1,0.8,0.3,1.3,0.5c0.4,0.3,0.8,0.6,1.2,1c0.4,0.4,0.6,0.9,0.7,1.3c-0.3,0.7-0.6,1.4-0.9,2.1c-0.3,0.7-0.6,1.4-0.8,2.1
		c0.9-1.2,1.8-2.2,2.7-3.1c0.9-0.9,1.7-1.6,2.5-2.2c0.8-0.6,1.5-1.1,2.1-1.4c0.6-0.3,1-0.5,1.3-0.5v-0.1c0.6,0.1,1.3,0.4,2.1,1
		c0.8,0.6,1.4,1.4,1.7,2.4c-0.1,0.3-0.3,0.7-0.5,1.4c-0.3,0.7-0.6,1.4-1,2.3c1.5-1.7,2.9-3,4.2-3.9c1.3-0.9,2.2-1.3,2.5-1.3l0.1-0.1
		c0.5,0.1,1.2,0.4,2.1,1c0.8,0.6,1.4,1.4,1.7,2.4c-0.1,0.5-0.4,1.1-0.7,2c-0.3,0.9-0.7,1.8-1.1,2.8c-0.4,1-0.8,2.1-1.3,3.1
		c-0.4,1.1-0.8,2.1-1,3c-0.3,0.9-0.4,1.7-0.5,2.3c-0.1,0.6,0.1,1,0.4,1c0.3,0.1,0.7-0.1,1.2-0.6c0.5-0.5,1-1.1,1.5-1.9
		c0.5-0.8,1.1-1.6,1.6-2.6c0.6-1,1.1-1.9,1.6-2.9c0.5-0.9,1-1.8,1.4-2.6C133.3,26.5,133.6,25.9,133.8,25.5z"/>
	<path class="st0" d="M149.7,25.6c0.3-0.6,0.6-1,1-1.3c0.4-0.3,0.7-0.4,0.9-0.3c0.3,0,0.4,0.2,0.5,0.6c0.1,0.4,0,0.9-0.3,1.5
		c-1.3,3.3-2.9,6-4.7,8.1s-3.5,3.8-5.3,4.9c-1.8,1.1-3.4,1.7-5,1.7c-1.6,0-2.9-0.4-4-1.4c-1-1-1.7-2.4-2-4.4c-0.3-1.9,0-4.4,0.8-7.3
		c0.5-1.8,1.1-3.3,1.9-4.5c0.8-1.2,1.5-2.2,2.4-3c0.8-0.7,1.7-1.3,2.5-1.6c0.9-0.3,1.7-0.4,2.4-0.4c1.3,0.1,2.2,0.6,2.9,1.4
		s1.1,1.9,1.3,3.2s0.1,2.6-0.2,4.1c-0.3,1.5-0.9,2.9-1.7,4.1c-0.8,1.3-1.8,2.4-3.1,3.3c-1.2,0.9-2.7,1.4-4.4,1.5
		c0.5,0.9,1.2,1.3,2.3,1.3c1,0,2.2-0.5,3.5-1.4c1.3-0.9,2.7-2.2,4.1-4C147.1,30.4,148.4,28.2,149.7,25.6z M141,23.4
		c-0.5-0.2-1.1,0-1.8,0.7c-0.6,0.6-1.3,1.5-1.8,2.5c-0.6,1-1,2.2-1.4,3.4c-0.4,1.2-0.6,2.2-0.7,3.1c0.8,0,1.5-0.2,2.1-0.6
		s1.3-1,1.8-1.6c0.5-0.6,1-1.4,1.4-2.2c0.4-0.8,0.7-1.6,0.8-2.3c0.2-0.7,0.2-1.4,0.2-1.9C141.6,23.9,141.4,23.6,141,23.4z"/>
</g>
</svg>
