<?xml version="1.0" encoding="utf-8"?>
<!-- Generator: Adobe Illustrator 19.1.0, SVG Export Plug-In . SVG Version: 6.00 Build 0)  -->
<!DOCTYPE svg PUBLIC "-//W3C//DTD SVG 1.1//EN" "http://www.w3.org/Graphics/SVG/1.1/DTD/svg11.dtd">
<svg version="1.1" id="Layer_1" xmlns="http://www.w3.org/2000/svg" xmlns:xlink="http://www.w3.org/1999/xlink" x="0px" y="0px"
	 viewBox="0 0 53.1 15.5" style="enable-background:new 0 0 53.1 15.5;" xml:space="preserve">
<style type="text/css">
	.st0{fill:none;stroke:#FFFFFF;stroke-miterlimit:10;}
	.st1{fill:#FFFFFF;}
	.st2{font-family:'BebasNeue';}
	.st3{font-size:12.894px;}
</style>
<rect x="2.5" y="1.5" class="st0" width="11.8" height="11.8"/>
<path class="st1" d="M11,6c-0.2-0.1-0.5-0.1-0.8,0.5c-0.1,0.2-0.3,0.6-0.4,0.8C9.7,7.3,9.5,7.3,9.4,7.4c0.5-0.6,0.9-1.5,1-1.9
	c0.2-0.5-0.9-1-2-1c-1.1,0-2.1,0.5-2,1c0.1,0.4,0.5,1.3,1,1.9c-0.1,0-0.3,0-0.4-0.1C7,7.1,6.8,6.7,6.7,6.5C6.4,5.9,6.1,5.9,5.9,6
	C5.7,6.2,5.6,6.4,5.9,7c0,0,0.7,1.3,1.6,1.3l0,0l0.8,0v1.4L6.9,9.4c-0.1,0-0.1,0-0.1,0.1c0,0.1,0,0.1,0.1,0.1l1,0.2l-1,0.2
	c-0.1,0-0.1,0.1-0.1,0.1c0,0.1,0.1,0.1,0.1,0.1c0,0,0,0,0,0l1.6-0.3l1.6,0.3c0,0,0,0,0,0c0.1,0,0.1,0,0.1-0.1c0-0.1,0-0.1-0.1-0.1
	l-1-0.2l1-0.2c0.1,0,0.1-0.1,0.1-0.1c0-0.1-0.1-0.1-0.1-0.1L8.6,9.7V8.3l0.8,0l0,0C10.3,8.3,11,7,11,7C11.3,6.4,11.2,6.2,11,6z"/>
<text transform="matrix(1 0 0 1 19.0771 12.1314)" class="st1 st2 st3">placeit</text>
</svg>
